<svg width="2249" height="401" viewBox="0 0 2249 401" fill="none" xmlns="http://www.w3.org/2000/svg">
<path fill-rule="evenodd" clip-rule="evenodd" d="M0.720478 21.36C0.596711 21.1393 0.470457 20.9147 0.34217 20.6865C0.229616 20.4863 0.115497 20.2833 0.00012207 20.0777C8.39676 8.4216 24.0416 0.616033 41.1566 0.032336C59.6545 -0.598533 76.0523 8.05612 84.2966 21.17L84.5539 21.0564L204.119 235.689L333.718 23.4939L333.944 23.6036C336.853 18.8108 340.906 14.4988 346.058 11.0074C366.044 -2.53811 395.001 1.39731 410.735 19.7974C412.845 22.2651 414.61 24.8675 416.037 27.5569L388.38 72.8399C394.005 72.3796 399.819 72.1495 405.819 72.1495C433.749 72.1495 457.87 76.5441 478.183 85.3331C498.495 93.9269 514.12 106.036 525.058 121.661C535.995 137.091 541.464 154.767 541.464 174.689H450.058C450.058 166.485 448.495 159.357 445.37 153.302C442.245 147.247 437.46 142.56 431.015 139.239C424.569 135.724 416.073 133.966 405.526 133.966C397.323 133.966 390.097 135.431 383.847 138.36C377.792 141.095 373.007 144.903 369.491 149.786C366.171 154.669 364.511 160.333 364.511 166.778C364.511 171.271 365.487 175.372 367.44 179.083C369.589 182.599 372.812 185.919 377.108 189.044C381.601 191.974 387.362 194.61 394.394 196.954C401.62 199.298 410.409 201.544 420.761 203.692C442.831 207.794 462.948 213.556 481.112 220.978C499.472 228.4 514.12 238.653 525.058 251.739C536.19 264.825 541.757 282.11 541.757 303.595C541.757 317.657 538.534 330.548 532.089 342.267C525.839 353.985 516.757 364.239 504.843 373.028C492.929 381.818 478.671 388.653 462.069 393.536C445.468 398.419 426.718 400.86 405.819 400.86C375.937 400.86 350.644 395.489 329.94 384.747C309.237 374.005 293.612 360.528 283.065 344.318C274.013 329.971 268.919 315.325 267.783 300.381C267.31 302.634 266.584 304.809 265.632 306.88L205.611 277.825L139.831 306.869C138.122 303.062 137.172 298.911 137.149 294.563C137.052 276.012 153.864 260.904 174.701 260.817L230.52 260.584C251.323 260.498 268.273 275.417 268.425 293.927H353.378C353.769 304.474 356.405 313.068 361.288 319.708C366.366 326.349 372.909 331.232 380.917 334.357C388.925 337.286 397.909 338.751 407.87 338.751C417.831 338.751 426.132 337.384 432.772 334.65C439.413 331.915 444.491 328.204 448.007 323.517C451.522 318.634 453.28 313.068 453.28 306.818C453.28 300.958 451.425 295.782 447.714 291.29C444.198 286.798 437.753 282.696 428.378 278.985C419.198 275.275 406.21 271.564 389.413 267.853C373.593 264.532 358.847 260.235 345.175 254.962C331.503 249.493 319.589 242.95 309.433 235.333C304.614 231.626 300.3 227.611 296.493 223.289L267.442 270.854L205.818 241.024L139.188 270.442L0.489433 21.462L0.720478 21.36ZM230.873 327.762C243.949 327.708 255.44 321.738 262.162 312.714C255.403 303.442 243.65 297.33 230.313 297.386L174.495 297.618C161.419 297.673 149.928 303.643 143.206 312.667C149.965 321.938 161.718 328.05 175.055 327.995L230.873 327.762Z" fill="url(#paint0_linear_0_1)"/>
<path d="M568.889 215C568.889 194.4 573.489 176 582.689 159.8C592.089 143.4 604.789 130.7 620.789 121.7C636.989 112.5 655.089 107.9 675.089 107.9C698.489 107.9 718.989 113.9 736.589 125.9C754.189 137.9 766.489 154.5 773.489 175.7H725.189C720.389 165.7 713.589 158.2 704.789 153.2C696.189 148.2 686.189 145.7 674.789 145.7C662.589 145.7 651.689 148.6 642.089 154.4C632.689 160 625.289 168 619.889 178.4C614.689 188.8 612.089 201 612.089 215C612.089 228.8 614.689 241 619.889 251.6C625.289 262 632.689 270.1 642.089 275.9C651.689 281.5 662.589 284.3 674.789 284.3C686.189 284.3 696.189 281.8 704.789 276.8C713.589 271.6 720.389 264 725.189 254H773.489C766.489 275.4 754.189 292.1 736.589 304.1C719.189 315.9 698.689 321.8 675.089 321.8C655.089 321.8 636.989 317.3 620.789 308.3C604.789 299.1 592.089 286.4 582.689 270.2C573.489 254 568.889 235.6 568.889 215ZM906.562 322.1C886.962 322.1 868.962 317.5 852.562 308.3C836.162 299.1 823.162 286.4 813.562 270.2C803.962 253.8 799.162 235.3 799.162 214.7C799.162 194.3 803.962 176 813.562 159.8C823.162 143.4 836.162 130.6 852.562 121.4C868.962 112.2 886.962 107.6 906.562 107.6C926.362 107.6 944.362 112.2 960.562 121.4C976.962 130.6 989.862 143.4 999.262 159.8C1008.86 176 1013.66 194.3 1013.66 214.7C1013.66 235.3 1008.86 253.8 999.262 270.2C989.862 286.4 976.962 299.1 960.562 308.3C944.162 317.5 926.162 322.1 906.562 322.1ZM906.562 284.6C919.162 284.6 930.262 281.8 939.862 276.2C949.462 270.4 956.962 262.2 962.362 251.6C967.762 241 970.462 228.7 970.462 214.7C970.462 200.7 967.762 188.5 962.362 178.1C956.962 167.5 949.462 159.4 939.862 153.8C930.262 148.2 919.162 145.4 906.562 145.4C893.962 145.4 882.762 148.2 872.962 153.8C863.362 159.4 855.862 167.5 850.462 178.1C845.062 188.5 842.362 200.7 842.362 214.7C842.362 228.7 845.062 241 850.462 251.6C855.862 262.2 863.362 270.4 872.962 276.2C882.762 281.8 893.962 284.6 906.562 284.6ZM1273.21 110.6V320H1231.21V183.8L1175.11 320H1143.31L1086.91 183.8V320H1044.91V110.6H1092.61L1159.21 266.3L1225.81 110.6H1273.21ZM1356.73 144.5V197H1427.23V230.3H1356.73V285.8H1436.23V320H1314.73V110.3H1436.23V144.5H1356.73ZM1582.4 320L1536.2 238.4H1516.4V320H1474.4V110.6H1553C1569.2 110.6 1583 113.5 1594.4 119.3C1605.8 124.9 1614.3 132.6 1619.9 142.4C1625.7 152 1628.6 162.8 1628.6 174.8C1628.6 188.6 1624.6 201.1 1616.6 212.3C1608.6 223.3 1596.7 230.9 1580.9 235.1L1631 320H1582.4ZM1516.4 206.9H1551.5C1562.9 206.9 1571.4 204.2 1577 198.8C1582.6 193.2 1585.4 185.5 1585.4 175.7C1585.4 166.1 1582.6 158.7 1577 153.5C1571.4 148.1 1562.9 145.4 1551.5 145.4H1516.4V206.9ZM1656.39 215C1656.39 194.4 1660.99 176 1670.19 159.8C1679.59 143.4 1692.29 130.7 1708.29 121.7C1724.49 112.5 1742.59 107.9 1762.59 107.9C1785.99 107.9 1806.49 113.9 1824.09 125.9C1841.69 137.9 1853.99 154.5 1860.99 175.7H1812.69C1807.89 165.7 1801.09 158.2 1792.29 153.2C1783.69 148.2 1773.69 145.7 1762.29 145.7C1750.09 145.7 1739.19 148.6 1729.59 154.4C1720.19 160 1712.79 168 1707.39 178.4C1702.19 188.8 1699.59 201 1699.59 215C1699.59 228.8 1702.19 241 1707.39 251.6C1712.79 262 1720.19 270.1 1729.59 275.9C1739.19 281.5 1750.09 284.3 1762.29 284.3C1773.69 284.3 1783.69 281.8 1792.29 276.8C1801.09 271.6 1807.89 264 1812.69 254H1860.99C1853.99 275.4 1841.69 292.1 1824.09 304.1C1806.69 315.9 1786.19 321.8 1762.59 321.8C1742.59 321.8 1724.49 317.3 1708.29 308.3C1692.29 299.1 1679.59 286.4 1670.19 270.2C1660.99 254 1656.39 235.6 1656.39 215ZM1886.66 215C1886.66 194.4 1891.26 176 1900.46 159.8C1909.86 143.4 1922.56 130.7 1938.56 121.7C1954.76 112.5 1972.86 107.9 1992.86 107.9C2016.26 107.9 2036.76 113.9 2054.36 125.9C2071.96 137.9 2084.26 154.5 2091.26 175.7H2042.96C2038.16 165.7 2031.36 158.2 2022.56 153.2C2013.96 148.2 2003.96 145.7 1992.56 145.7C1980.36 145.7 1969.46 148.6 1959.86 154.4C1950.46 160 1943.06 168 1937.66 178.4C1932.46 188.8 1929.86 201 1929.86 215C1929.86 228.8 1932.46 241 1937.66 251.6C1943.06 262 1950.46 270.1 1959.86 275.9C1969.46 281.5 1980.36 284.3 1992.56 284.3C2003.96 284.3 2013.96 281.8 2022.56 276.8C2031.36 271.6 2038.16 264 2042.96 254H2091.26C2084.26 275.4 2071.96 292.1 2054.36 304.1C2036.96 315.9 2016.46 321.8 1992.86 321.8C1972.86 321.8 1954.76 317.3 1938.56 308.3C1922.56 299.1 1909.86 286.4 1900.46 270.2C1891.26 254 1886.66 235.6 1886.66 215ZM2169.14 144.5V197H2239.64V230.3H2169.14V285.8H2248.64V320H2127.14V110.3H2248.64V144.5H2169.14Z" fill="white"/>
<defs>
<linearGradient id="paint0_linear_0_1" x1="271" y1="-6.31061e-07" x2="271" y2="226" gradientUnits="userSpaceOnUse">
<stop stop-color="#8502EC"/>
<stop offset="1" stop-color="#F47BE1"/>
</linearGradient>
</defs>
</svg>
